<?xml version="1.0" encoding="iso-8859-1"?>
<!-- Generator: Adobe Illustrator 21.0.0, SVG Export Plug-In . SVG Version: 6.00 Build 0)  -->
<svg xmlns="http://www.w3.org/2000/svg" xmlns:xlink="http://www.w3.org/1999/xlink" version="1.1" id="Capa_1" x="0px" y="0px" viewBox="0 0 510 510" style="enable-background:new 0 0 510 510;" xml:space="preserve" width="512" height="512">
<g id="XMLID_890_">
	<path id="XMLID_936_" d="M449.5,273.903h-2.455l43.348-173.613c2.007-8.038-2.882-16.181-10.919-18.188   c-8.04-2.004-16.18,2.882-18.187,10.92l-45.162,180.881H111.869L66.707,93.022c-2.006-8.037-10.146-12.921-18.187-10.92   c-8.038,2.007-12.926,10.149-10.919,18.188l43.348,173.613H60.5c-33.36,0-60.5,27.141-60.5,60.5v64.444   c0,16.267,13.233,29.5,29.5,29.5h451c16.267,0,29.5-13.233,29.5-29.5v-64.444C510,301.044,482.86,273.903,449.5,273.903z    M480,398.347H30v-63.944c0-16.817,13.682-30.5,30.5-30.5h389c16.818,0,30.5,13.683,30.5,30.5V398.347z"/>
	<path id="XMLID_937_" d="M87.223,337.676h-0.556c-8.284,0-15,6.716-15,15s6.716,15,15,15h0.556c8.284,0,15-6.716,15-15   S95.507,337.676,87.223,337.676z"/>
	<path id="XMLID_938_" d="M131.667,337.676h-0.556c-8.284,0-15,6.716-15,15s6.716,15,15,15h0.556c8.284,0,15-6.716,15-15   S139.951,337.676,131.667,337.676z"/>
	<path id="XMLID_939_" d="M176.112,337.676h-0.556c-8.284,0-15,6.716-15,15s6.716,15,15,15h0.556c8.284,0,15-6.716,15-15   S184.396,337.676,176.112,337.676z"/>
	<path id="XMLID_940_" d="M414.928,337.676h-64.373c-8.284,0-15,6.716-15,15s6.716,15,15,15h64.373c8.284,0,15-6.716,15-15   S423.212,337.676,414.928,337.676z"/>
</g>















</svg>
